<svg data-realm="연묵" data-realm-key="yeonmuk" viewBox="0 0 100 100" xmlns="http://www.w3.org/2000/svg" role="img" aria-label="연묵 세계 심볼">
  <title>연묵</title>
  <desc>먹선, 강호, 봉인 인장의 단색 문장.</desc>

  <path fill="none" stroke="currentColor" stroke-width="8" stroke-linecap="round" d="M74 18 C51 16 28 30 24 51 C20 73 39 84 58 76 C72 70 78 56 72 44 C66 32 51 30 41 38 C34 44 32 54 37 61 C40 66 46 68 52 66"/>
  <path fill="none" stroke="currentColor" stroke-width="5" stroke-linecap="round" d="M22 80 C34 87 48 89 63 87"/>
  <path fill="currentColor" fill-rule="evenodd" d="M63 63 H82 V82 H63 Z M68 68 L72 72 L76 68 L78 70 L74 74 L78 78 L76 80 L72 76 L68 80 L66 78 L70 74 L66 70 Z"/>

</svg>
